HIERARCHY
ROOT Hips
{
	OFFSET 0.000000 0.000000 0.000000
	CHANNELS 6 Xposition Yposition Zposition Zrotation Xrotation Yrotation
	JOINT RightUpLeg
	{
		OFFSET -9.711200 0.000000 0.000000
		CHANNELS 3 Zrotation Xrotation Yrotation
		JOINT RightLeg
		{
			OFFSET 0.000000 -42.071800 0.000000
			CHANNELS 3 Zrotation Xrotation Yrotation
			JOINT RightFoot
			{
				OFFSET 0.000000 -40.121000 0.000000
				CHANNELS 3 Zrotation Xrotation Yrotation
				JOINT RightToe
				{
					OFFSET 0.000000 -9.631400 3.100600
					CHANNELS 3 Zrotation Xrotation Yrotation
					JOINT RightToeEnd
					{
						OFFSET 0.000000 -4.048200 4.118000
						CHANNELS 3 Zrotation Xrotation Yrotation
						End Site
						{
						    OFFSET 0.000000 -3.505200 3.565600
						}
					}
				}
			}
		}
	}
	JOINT LeftUpLeg
	{
		OFFSET 9.711200 0.000000 0.000000
		CHANNELS 3 Zrotation Xrotation Yrotation
		JOINT LeftLeg
		{
			OFFSET 0.000000 -42.071800 0.000000
			CHANNELS 3 Zrotation Xrotation Yrotation
			JOINT LeftFoot
			{
				OFFSET 0.000000 -40.121000 0.000000
				CHANNELS 3 Zrotation Xrotation Yrotation
				JOINT LeftToe
				{
					OFFSET 0.000000 -9.631400 3.100600
					CHANNELS 3 Zrotation Xrotation Yrotation
					JOINT LeftToeEnd
					{
						OFFSET 0.000000 -4.048200 4.118000
						CHANNELS 3 Zrotation Xrotation Yrotation
						End Site
						{
						    OFFSET 0.000000 -3.505200 3.565600
						}
					}
				}
			}
		}
	}
	JOINT Spine
	{
		OFFSET 0.000000 14.595200 0.000000
		CHANNELS 3 Zrotation Xrotation Yrotation
		JOINT Spine1
		{
			OFFSET 0.000000 9.770300 0.000000
			CHANNELS 3 Zrotation Xrotation Yrotation
			JOINT Spine2
			{
				OFFSET 0.000000 14.330100 0.000000
				CHANNELS 3 Zrotation Xrotation Yrotation
				JOINT LeftShoulder
				{
					OFFSET 2.000000 14.330100 0.000000
					CHANNELS 3 Zrotation Xrotation Yrotation
					JOINT LeftArm
					{
						OFFSET 14.369100 0.000000 0.000000
						CHANNELS 3 Zrotation Xrotation Yrotation
						JOINT LeftForeArm
						{
							OFFSET 0.000000 -27.196400 0.000000
							CHANNELS 3 Zrotation Xrotation Yrotation
							JOINT LeftHand
							{
								OFFSET 0.000000 -24.849000 0.000000
								CHANNELS 3 Zrotation Xrotation Yrotation
								JOINT LeftFinger0
								{
									OFFSET 0.000000 -7.367300 0.000000
									CHANNELS 3 Zrotation Xrotation Yrotation
									End Site
									{
									    OFFSET 0.000000 -5.000000 0.000000
									}
								}
							}
						}
					}
				}
				JOINT RightShoulder
				{
					OFFSET -2.000000 14.330100 0.000000
					CHANNELS 3 Zrotation Xrotation Yrotation
					JOINT RightArm
					{
						OFFSET -14.369100 0.000000 0.000000
						CHANNELS 3 Zrotation Xrotation Yrotation
						JOINT RightForeArm
						{
							OFFSET 0.000000 -27.196400 0.000000
							CHANNELS 3 Zrotation Xrotation Yrotation
							JOINT RightHand
							{
								OFFSET 0.000000 -24.849000 0.000000
								CHANNELS 3 Zrotation Xrotation Yrotation
								JOINT RightFinger0
								{
									OFFSET 0.000000 -7.367300 0.000000
									CHANNELS 3 Zrotation Xrotation Yrotation
									End Site
									{
									    OFFSET 0.000000 -5.000000 0.000000
									}
								}
							}
						}
					}
				}
				JOINT Neck
				{
					OFFSET 0.000000 14.330100 0.000000
					CHANNELS 3 Zrotation Xrotation Yrotation
					JOINT Head
					{
						OFFSET 0.000000 8.944300 0.000000
						CHANNELS 3 Zrotation Xrotation Yrotation
						JOINT HeadTip
						{
							OFFSET 0.000000 10.000000 0.000000
							CHANNELS 3 Zrotation Xrotation Yrotation
							End Site
							{
							    OFFSET 0.000000 5.000000 0.000000
							}
						}
					}
				}
			}
		}
	}
}
MOTION
Frames:	9
Frame Time:	0.033332
-242.197600 88.118400 -55.081000 -1.859103 -1.833465 3.649803 3.624205 -2.715572 -12.259201 -0.000000 6.670604 -0.000000 -4.745293 -45.960728 -24.174134 -0.000000 0.435203 -0.000000 -0.000000 -0.000000 -0.000000 6.086033 -7.011538 11.202970 0.000000 16.480622 0.000000 -8.518834 -52.747641 -15.856119 0.000000 1.981948 -0.000000 -0.000000 0.000000 -0.000000 4.879144 -0.986974 1.366754 0.000000 3.163085 -0.000000 -0.000000 0.000000 0.000000 4.885937 0.000000 7.740289 85.988657 -14.688670 63.672044 -0.000000 -9.910618 -0.000000 6.132161 12.472750 -51.176408 0.000000 0.000000 -0.000000 -11.129415 0.000000 -8.838677 -94.311543 -10.020823 -9.918014 -0.000020 -7.430557 -0.000001 3.808059 17.983921 21.837469 -0.000000 -0.000000 -0.000000 -0.000000 0.000000 0.000000 -0.855933 21.758803 2.331190 0.000000 0.000000 -0.000000 
-241.887900 88.174200 -55.006700 -1.650998 -1.641368 3.688977 3.207851 -3.006538 -12.091740 -0.000000 7.003689 -0.000000 -5.111952 -46.046522 -24.572315 -0.000000 0.616259 -0.000000 -0.000000 -0.000000 0.000000 5.610756 -6.190856 11.736565 0.000000 14.655859 -0.000000 -9.746879 -52.260468 -16.957212 -0.000000 2.189468 0.000000 -0.000000 0.000000 -0.000000 4.538226 -1.279732 1.290728 -0.000000 3.069562 -0.000000 -0.000000 0.000000 0.000000 5.193576 -0.000000 7.694466 86.511495 -14.724585 64.105709 -0.000000 -9.892642 -0.000000 6.396958 12.499320 -51.436113 0.000000 0.000000 0.000000 -11.323460 0.000000 -8.845850 -94.601515 -9.991394 -10.202515 -0.000019 -7.282232 -0.000001 3.911208 18.101278 21.965702 0.000000 -0.000000 0.000000 -0.000000 0.000000 0.000000 -0.661670 21.669790 1.752868 -0.000000 0.000000 -0.000000 
-241.584300 88.202000 -54.957000 -1.519251 -1.461543 3.766233 2.830133 -3.295189 -12.277880 0.000000 7.343437 -0.000000 -4.983575 -46.199190 -24.470216 0.000000 0.677917 -0.000000 -0.000000 0.000000 -0.000000 5.142771 -5.531288 11.674945 -0.000000 13.077294 0.000000 -10.132100 -51.897201 -17.100121 -0.000000 2.135579 -0.000000 -0.000000 0.000000 -0.000000 4.302464 -1.511159 1.158582 -0.000000 2.980504 -0.000000 -0.000000 -0.000000 -0.000000 5.394772 -0.000000 7.582988 86.990116 -14.687797 64.515451 0.000000 -9.980943 -0.000000 6.608296 12.393893 -51.777552 -0.000000 -0.000000 0.000000 -11.466244 -0.000000 -8.937109 -94.937139 -10.067495 -10.550660 -0.000019 -7.176251 -0.000001 3.577837 18.191690 22.263044 -0.000000 -0.000000 -0.000000 -0.000000 -0.000000 -0.000000 -0.631321 21.619106 0.894650 -0.000000 0.000000 -0.000000 
-241.289300 88.225700 -54.912200 -1.424273 -1.248313 3.847978 2.512126 -3.510988 -12.459899 -0.000000 7.460008 0.000000 -4.833900 -46.238619 -24.350513 -0.000000 0.630020 -0.000000 -0.000000 -0.000000 -0.000000 4.667754 -5.009740 11.338947 -0.000000 11.664926 0.000000 -9.774814 -51.621352 -16.623124 0.000000 2.145274 -0.000000 -0.000000 0.000000 -0.000000 4.102460 -1.806413 1.039810 -0.000000 2.912472 -0.000000 0.000000 0.000000 0.000000 5.496687 0.000000 7.543065 87.414068 -14.866656 64.861185 0.000000 -10.086754 -0.000000 6.587020 12.426623 -51.891988 -0.000000 0.000000 -0.000000 -11.523355 -0.000000 -8.978304 -95.260088 -10.122032 -10.756013 -0.000019 -7.064069 -0.000001 3.497016 18.208329 22.423533 0.000000 0.000000 -0.000000 0.000000 0.000000 0.000000 -0.526203 21.619058 0.016517 -0.000000 -0.000000 -0.000000 
-241.003100 88.248500 -54.863200 -1.374848 -1.031501 3.793793 2.258642 -3.682584 -12.485435 -0.000000 7.461218 0.000000 -4.601634 -46.265417 -24.251786 0.000000 0.709398 -0.000000 -0.000000 -0.000000 -0.000000 4.276840 -4.539712 11.125015 -0.000000 10.389163 0.000000 -9.422191 -51.325755 -16.148927 -0.000000 2.026594 0.000000 -0.000000 0.000000 0.000000 3.979403 -2.105706 1.092120 -0.000000 2.823689 -0.000000 0.000000 -0.000000 -0.000000 5.603033 -0.000000 7.435791 87.659406 -15.074166 64.961258 -0.000000 -10.059771 -0.000000 6.517948 12.453190 -51.983721 0.000000 0.000000 -0.000000 -11.540165 0.000000 -9.044034 -95.581249 -10.222179 -11.066164 -0.000019 -6.956779 -0.000001 3.630327 18.269308 22.489104 0.000000 0.000000 0.000000 0.000000 -0.000000 -0.000000 -0.440405 21.744140 -0.680988 -0.000000 0.000000 0.000000 
-240.740100 88.265100 -54.827200 -1.395559 -0.801227 3.635134 2.089594 -3.869036 -12.487542 -0.000000 7.420197 -0.000000 -4.268468 -46.221877 -24.033106 0.000000 0.745874 -0.000000 -0.000000 0.000000 -0.000000 4.037984 -4.215110 11.141500 -0.000000 9.411667 -0.000000 -9.406389 -51.160655 -15.963610 0.000000 2.064028 -0.000000 -0.000000 0.000000 0.000000 3.932640 -2.387340 1.183912 0.000000 2.746442 0.000000 0.000000 0.000000 0.000000 5.653202 0.000000 7.348346 87.842258 -15.220214 64.911578 -0.000000 -10.040795 -0.000000 6.516336 12.565973 -52.085404 -0.000000 0.000000 -0.000000 -11.557323 0.000000 -9.058637 -95.799602 -10.285113 -11.438088 -0.000019 -6.955461 -0.000001 3.486170 18.373031 22.753245 0.000000 0.000000 -0.000000 0.000000 0.000000 0.000000 -0.306349 21.822769 -1.194021 -0.000000 0.000000 -0.000000 
-240.495500 88.272700 -54.821600 -1.423345 -0.588453 3.479542 1.928363 -4.077563 -12.640119 -0.000000 7.417851 -0.000000 -3.810158 -46.217558 -23.656675 0.000000 0.816612 -0.000000 -0.000000 0.000000 0.000000 3.858989 -4.079566 11.222730 -0.000000 8.801912 -0.000000 -9.437938 -51.035463 -15.849978 -0.000000 2.011839 0.000000 -0.000000 -0.000000 0.000000 3.889074 -2.578065 1.184783 0.000000 2.671794 0.000000 -0.000000 0.000000 -0.000000 5.657125 0.000000 7.261798 87.984900 -15.210758 64.748522 0.000000 -10.051290 0.000000 6.377865 12.706529 -52.173702 0.000000 0.000000 -0.000000 -11.524875 0.000000 -8.986113 -96.028128 -10.336124 -11.477274 -0.000018 -6.913771 -0.000001 3.456038 18.328358 22.848986 -0.000000 0.000000 0.000000 -0.000000 0.000000 -0.000000 -0.150365 21.840081 -1.548007 -0.000000 0.000000 -0.000000 
-240.252400 88.280300 -54.818400 -1.454980 -0.454506 3.294185 1.803178 -4.162676 -12.632720 0.000000 7.307041 -0.000000 -3.519285 -46.117706 -23.447385 -0.000000 0.789532 -0.000000 -0.000000 0.000000 0.000000 3.693278 -4.028247 11.203662 0.000000 8.506228 0.000000 -9.186421 -51.007475 -15.599222 0.000000 2.049499 -0.000000 0.000000 0.000000 -0.000000 3.872071 -2.649778 1.170496 0.000000 2.656179 0.000000 -0.000000 0.000000 -0.000000 5.606901 0.000000 7.237191 88.102741 -15.145947 64.591519 0.000000 -9.999974 -0.000000 6.408890 12.599150 -52.220431 0.000000 0.000000 0.000000 -11.559230 0.000000 -8.981655 -96.101496 -10.463679 -11.545486 -0.000018 -6.878856 -0.000001 3.417470 18.280263 22.971562 0.000000 0.000000 -0.000000 -0.000000 0.000000 -0.000000 -0.001947 21.712957 -1.811502 -0.000000 0.000000 -0.000000 
-240.021800 88.289900 -54.811700 -1.485344 -0.366936 3.115349 1.681666 -4.247651 -12.691097 0.000000 7.289634 -0.000000 -3.232829 -46.073569 -23.175941 -0.000000 0.909463 0.000000 -0.000000 0.000000 -0.000000 3.548166 -4.025710 11.237479 -0.000000 8.409787 -0.000000 -8.790321 -51.077202 -15.339678 -0.000000 2.078768 -0.000000 -0.000000 0.000000 -0.000000 3.855846 -2.666199 1.176459 0.000000 2.635044 -0.000000 0.000000 0.000000 -0.000000 5.549468 0.000000 7.297118 88.216788 -15.246694 64.500910 -0.000000 -9.862910 -0.000000 6.396086 12.745347 -52.342440 -0.000000 0.000000 -0.000000 -11.585712 0.000000 -8.959434 -96.098124 -10.522829 -11.515938 -0.000018 -6.863460 -0.000001 3.417235 18.355701 23.142947 0.000000 0.000000 -0.000000 0.000000 0.000000 -0.000000 0.130768 21.625870 -1.904428 -0.000000 0.000000 -0.000000 
